<?xml version="1.0" encoding="UTF-8"?>
<svg width="200px" height="200px" viewBox="0 0 200 200" version="1.1" xmlns="http://www.w3.org/2000/svg" xmlns:xlink="http://www.w3.org/1999/xlink">
    <!-- Generator: Sketch 53.2 (72643) - https://sketchapp.com -->
    <title>synnove</title>
    <desc>Created with Sketch.</desc>
    <defs>
        <polygon id="path-1" points="0.120878981 0.213600044 83.9563138 0.213600044 83.9563138 45 0.120878981 45"></polygon>
        <polygon id="path-3" points="0.258539558 0.168926134 37.8108201 0.168926134 37.8108201 21.829665 0.258539558 21.829665"></polygon>
        <polygon id="path-5" points="0.14803517 0.206415205 70.823588 0.206415205 70.823588 46.9425115 0.14803517 46.9425115"></polygon>
    </defs>
    <g id="synnove" stroke="none" stroke-width="1" fill="none" fill-rule="evenodd">
        <g id="Group-34" transform="translate(27.000000, 45.000000)">
            <path d="M20.6471685,62.4977056 C21.111449,61.9462082 22.3491655,61.4438786 23.0279397,61.1977671 C25.3121341,60.3712039 28.1675822,60.0002612 29.5948959,62.2611545 C30.7352148,64.0672468 30.1095168,65.8271762 27.0206973,65.3010821 C25.9703892,65.1218933 24.7750789,64.7260936 23.8270931,64.2622786 C22.7808889,63.7503885 21.5459082,63.2472394 20.6471685,62.4977056 M9.73753444,81.4720551 C6.74556539,85.0132198 5.38856407,89.4850192 6.7006968,93.8404552 C7.76276921,97.3652307 10.2614573,100.297809 13.4692881,101.784858 C16.6954493,103.280374 20.5101004,103.310148 24.0692194,102.339087 C29.8132199,100.772277 35.2018284,96.4040027 37.2477268,90.3801439 C37.7180262,88.9947083 37.9872378,87.5560077 37.9995493,86.1102051 C38.006389,85.3024896 37.9347087,84.5016029 37.8304713,83.709184 C37.4365032,80.7192434 36.5008289,77.7071774 34.4253829,75.7183453 C30.8301502,72.2727843 25.651658,73.3673113 21.1538552,72.3457164 C20.3388337,72.1605182 19.5210762,71.9294301 18.8319056,71.4628836 C17.1041912,70.2929662 17.6032175,67.4966917 18.2439629,65.5914445 C21.2403094,67.3521934 24.2536183,69.3426645 27.9123237,69.49645 C28.6920523,69.5292285 29.4799886,69.4568427 30.2627266,69.3448497 C31.1086637,69.2241158 32.0265548,68.8889561 32.7534807,68.2339335 C35.2242627,66.0082771 34.8147,63.6203673 33.81227,61.2037765 C33.5441528,60.5569485 32.5775629,59.0625245 31.658304,58.4195207 C30.8145556,57.830055 29.8255314,57.481784 28.8146202,57.2646268 C26.8283642,56.8382338 24.7110591,56.9305598 22.6960763,57.5167476 C20.5311667,58.146367 16.8615178,60.7416004 16.8615178,60.7416004 C14.0594195,59.8721521 10.8105504,60.612945 8.0954534,61.9197123 C4.98419956,63.4174141 3.60394318,64.2543571 1.18705816,66.8463127 C0.173411005,67.9334645 -0.123706623,69.1391649 0.0440034191,69.5671968 C0.138391616,69.8072989 0.498981887,70.0938372 0.851911666,70.0730775 C1.45763766,70.0378407 1.85078502,69.5557244 2.27594229,69.2364077 C2.81682769,68.8299549 4.2933874,67.7182193 5.38145076,66.9793385 C7.53569036,65.5163273 9.83575288,64.6870326 12.1155698,64.3912071 C13.387485,64.1989069 14.4673407,64.4305413 14.4673407,64.4305413 C14.4673407,64.4305413 13.4534199,66.3778541 13.3387861,69.2331298 C13.3270218,72.2768816 14.4533876,74.7964515 17.4437151,76.1256174 C19.01138,76.8218863 20.8520866,76.6656423 22.5726877,76.8653177 C24.2932887,77.0649931 26.0398808,77.269312 27.6108287,77.958752 C29.8184181,78.9270819 31.386083,80.0934483 32.5625156,82.609194 C35.2464234,88.3492461 30.7426017,93.5317915 30.4093703,93.9942407 C29.9543918,94.6246795 29.3382695,95.1070689 28.7194112,95.5577725 C26.2365912,97.3674159 23.5510419,98.7689676 20.5618087,98.6913919 C18.7580366,98.6446826 17.0106238,98.145904 15.4038357,97.3857172 C14.3280839,96.8765587 13.2862571,96.2294575 12.5675388,95.2592155 C11.6266663,93.9895971 11.3290015,92.2583488 11.5224289,90.5967548 C11.8107917,88.1211627 13.1387926,85.8930479 14.2085255,83.6654794 C14.4101606,83.2459153 14.6178146,82.7807345 14.5179546,82.3428691 C14.4096134,81.8686742 13.9806259,81.5881454 13.6263281,81.2846716 C13.2900873,80.9970408 12.8783359,80.5589022 12.6052941,80.4414461 C11.2989067,79.8801152 9.73753444,81.4720551 9.73753444,81.4720551" id="Fill-1" fill="#BE1936"></path>
            <g id="Group-5" transform="translate(35.000000, 66.000000)">
                <mask id="mask-2" fill="white">
                    <use xlink:href="#path-1"></use>
                </mask>
                <g id="Clip-4"></g>
                <path d="M9.52450196,37.7815061 C8.79677647,38.8571159 8.02567843,40.0059878 6.9830902,40.6779695 C6.63061961,40.9051646 6.20979608,41.0862622 5.8210902,40.9501646 C4.64069804,40.5369329 4.6956,38.5456829 5.06097255,37.5608963 C5.4181098,36.5997073 6.08269804,35.8067195 6.82991373,35.1794634 C7.92136471,34.263 11.8907765,32.4007134 11.8907765,32.4007134 C11.8907765,32.4007134 10.2148941,36.761872 9.52450196,37.7815061 M78.5782667,19.0027866 C67.0115216,18.1294024 55.8139922,19.3723902 54.6209725,19.4544329 C48.2334039,19.8934573 41.9021098,20.7297988 35.5990902,22.0210793 C29.5269333,23.2651646 17.2382275,26.9496768 17.0943843,27.0001646 C17.2041882,26.5092805 17.3074039,26.0403476 17.3957961,25.5656524 C18.6190118,18.9915366 19.5001882,10.5949207 19.6583059,3.8794939 C19.6799922,2.9682439 19.5257176,2.07839634 19.3794039,1.1825122 C19.2866196,0.612329268 18.6445412,0.172481707 18.1869333,0.216658537 C16.9447765,0.343152439 16.1854824,1.16385366 15.9905804,2.58985976 C15.9430902,2.93559146 15.8947765,3.28132317 15.8459137,3.62678049 C15.6112078,5.29534756 15.3509725,8.83443293 15.2590118,10.5597988 C15.1533255,12.545561 14.944149,14.2369024 14.2348157,15.8001037 C13.7283451,16.9157744 12.7755216,17.6873598 11.7068549,18.0882439 C10.8221098,18.421628 10.3233255,18.1700122 9.75261961,17.6352256 C9.17724706,17.0963232 9.22583529,16.3760488 9.22583529,15.8294634 C9.22556078,13.1895549 9.76689412,10.5839451 10.8347373,8.08562195 C11.4158745,6.7257439 11.8929725,5.26187195 10.8136,3.63089634 C10.4523451,3.08513415 9.90963922,2.72431098 9.36171765,2.66586585 C8.89971765,2.6140061 8.4530902,2.7827561 8.10665882,3.13397561 C6.60426667,4.65656707 5.99787451,6.94937195 5.47575686,9.05806098 C5.06920784,10.6994634 4.80375686,12.3822988 4.68489412,14.0769329 C4.62807059,14.8850122 4.61681569,15.6969329 4.71454118,16.4912927 C4.82022745,17.3512317 5.03022745,18.0199207 5.33383529,18.7635183 C5.93830588,20.2422073 6.98446275,21.2912012 8.28152157,21.8246159 C9.9961098,22.5289756 11.7606588,22.3827256 13.3838353,21.4004085 C13.7242275,21.1948902 14.4036392,20.7723293 14.4036392,20.7723293 C14.4036392,20.7723293 14.0003843,23.45175 13.9136392,24.0019024 C13.7176392,25.2476341 12.9745412,28.2760793 12.9745412,28.2760793 C12.9745412,28.2760793 7.35175686,30.8797683 5.99018824,31.6005915 C3.15505098,33.1017805 0.241129412,35.6140976 0.127207843,39.3178171 C0.102776471,40.1124512 0.138188235,40.9312317 0.429443137,41.6580915 C0.704501961,42.3437927 1.19065882,42.9013537 1.71689412,43.3774207 C2.86461961,44.4146159 4.17732549,44.9576341 5.66352157,44.9979695 C7.22136471,45.0394024 8.67461961,44.494189 9.93956078,43.3785183 C10.8514824,42.5737317 12.2380314,40.8222988 13.1271686,39.2138232 C14.0871294,37.4774817 16.7048549,30.684128 16.7048549,30.684128 C16.7048549,30.684128 30.1429333,26.2927866 37.1769725,25.3332439 C40.6146588,24.864311 44.0391686,24.3270549 47.479051,23.9012012 C50.2705412,23.5554695 62.0774824,22.9674512 68.3895608,23.2226341 C71.2710902,23.33925 75.5614039,23.993122 78.3976392,24.5355915 C79.0457569,24.6593415 79.6957961,24.7836402 80.3532471,24.82425 C81.5413255,24.8983354 83.7522275,25.1650427 83.9394431,23.4012622 C84.0141098,22.6958049 83.8340314,21.8237927 83.5356392,21.1929695 C83.2534431,20.5964451 82.7656392,19.7817805 81.7903059,19.5954695 C81.7903059,19.5954695 79.1676392,19.0475122 78.5782667,19.0027866" id="Fill-3" fill="#BE1936" mask="url(#mask-2)"></path>
            </g>
            <path d="M100.276087,61.6499701 C100.276087,61.6499701 101.319065,61.7732832 101.779283,62.5595793 C101.148716,63.7169334 100.554416,64.8946998 99.9774266,66.0375135 C98.8393832,68.2929418 97.7568408,70.4384788 96.428116,72.4232333 C96.07313,71.2706328 95.9181671,69.6007323 95.9110234,69.2900726 C95.8887681,68.2767237 95.7453449,61.1091818 100.276087,61.6499701 M98.060722,75.0329422 L103.63719,66.232969 C104.703521,70.9107598 101.779283,75.7026361 98.060722,75.0329422 M56.435315,85.7153285 C56.4713082,85.7494423 56.5097742,85.7810395 56.5496139,85.8103998 C57.0112056,86.148742 57.567039,85.9862818 58.0187395,85.6974327 C58.8235027,85.1826492 59.4617631,84.3832109 59.9406645,83.4951325 C60.4198407,82.6070541 60.7489995,81.6292172 61.0383186,80.6443897 C61.7081761,78.3665917 62.2480736,75.9531771 62.4843646,73.5674451 C62.548383,73.0630077 62.5489325,72.561646 62.549482,72.0767821 C62.5511305,71.3039078 62.5525043,70.5743749 62.8025332,69.9167048 C63.1869182,68.9067113 63.7295632,67.9414574 64.5288312,67.2804318 C65.2995246,66.6426148 66.6439104,65.9561436 67.5253308,66.7284586 C67.8487198,67.0117154 68.0201681,67.4621859 68.1122117,67.910699 C68.3479532,69.0546312 68.3954861,70.1563405 68.2229388,71.3176093 C68.0394011,72.5538166 67.7009005,73.7564694 67.5572026,75.0007858 C67.3777863,76.5566007 67.3802591,78.2620132 67.9855487,79.7082164 C68.5218744,80.9905613 69.6489275,82.1786737 70.9422085,82.3542761 C71.6791068,82.4543807 72.8416035,82.228726 73.5334416,81.9247773 C74.2659437,81.6029327 74.9673982,81.1913296 75.6204956,80.6994751 C76.5563178,79.9945489 77.3184937,79.1187739 77.9490609,78.0718704 C79.5388048,75.4333605 79.548696,72.1886307 79.8907685,69.1245366 C80.2037167,66.3190925 81.3310445,65.5274836 81.7843935,65.0677856 C82.0410165,64.8071782 83.1768619,64.3421674 83.3928209,64.2965891 C83.9953629,64.1702001 84.4783857,64.3267882 85.0581229,64.8390551 C86.1164868,65.7729914 86.1030237,66.9639001 85.9829549,68.310558 C85.7474881,70.9420774 85.2232518,73.5294166 84.964156,76.1573009 C84.8924444,76.8862746 84.84656,77.6446085 85.0702122,78.3330371 C85.3125478,79.0785084 85.850522,79.6634769 86.4536136,80.0789947 C87.1058866,80.5286263 87.8507528,80.8085276 88.6140277,80.8912956 C89.3630152,80.9721063 90.1194211,80.8650112 90.8574184,80.6966789 C92.7331842,80.2688578 94.3619436,79.192594 95.7316071,77.6549545 C95.7357284,77.6507602 97.0342299,78.3744211 97.1441327,78.4188809 C97.5537953,78.5852558 97.9796687,78.7021376 98.4129604,78.758062 C99.2710264,78.8685125 100.13761,78.7312183 100.95144,78.41217 C102.696147,77.7287747 104.490585,75.9050822 105.386567,74.1006836 C106.223202,72.4159632 106.522962,70.0226814 106.662813,68.5166391 C106.838933,66.6208043 106.143248,62.3895694 106.143248,62.3895694 C106.143248,62.3895694 108.407795,58.5369422 108.877355,56.7551929 C109.031493,56.1699448 109.074081,55.5069619 108.804269,54.9784769 C108.635019,54.6468456 108.355591,54.3974231 108.047314,54.2341241 C107.318658,53.8485258 106.403168,53.9455545 105.750345,54.4785134 C105.188193,54.9370929 104.845845,55.6560002 104.578232,56.3743482 C104.187803,57.4223702 103.697636,58.4415912 103.236319,59.4510254 C103.236319,59.4510254 101.953479,58.6980042 100.484628,58.4639609 C99.7065162,58.3400885 98.5734185,58.2262825 97.5667089,58.5786058 C96.1170911,59.084721 94.7551208,59.7611258 93.5143183,61.8353592 C93.1524634,62.4396216 92.8708375,63.1277705 92.6782328,63.7742558 C92.6782328,63.7742558 92.142182,65.6108109 91.9869443,66.5226571 C91.2401548,70.9132764 92.7683531,74.2905467 92.9631558,74.7164105 C93.1673002,75.1635256 93.5310785,75.6833422 93.5310785,75.6833422 C93.3980961,75.8871864 92.8584734,76.3136094 92.6650445,76.4427946 C91.5962399,77.1558299 90.3373034,77.9566663 89.1193057,77.6873906 C88.4989045,77.5498168 88.163701,76.8745305 88.1598544,76.1603768 C88.1554583,75.2980236 88.3609765,74.3903717 88.559351,73.5129189 C89.0118758,71.5097094 89.6113955,69.5311065 89.8935709,67.4851148 C90.1567881,65.5769766 90.0982648,63.5463642 89.3165812,61.8286483 C89.0154476,61.1662246 88.6016636,60.5527347 88.0491273,60.1402927 C87.5128017,59.7398745 86.8695956,59.5469356 86.2269391,59.4787079 C85.2001722,59.3699351 84.1687346,59.5695849 83.1911492,59.9224675 C82.2737357,60.2538191 81.2483427,60.6539577 80.5293037,61.3924385 C80.2781758,61.6505293 80.0163324,61.8918428 79.7418502,62.1401468 C79.6107911,61.851018 79.4250554,61.6060695 79.1882149,61.4122917 C78.6477679,60.9718876 77.8713047,60.848854 77.056925,61.0753476 C76.1672619,61.323372 75.6342334,62.2313035 75.5957674,63.5664969 C75.5567519,64.9002922 75.4935578,66.3025948 75.401789,67.8533766 C75.3341988,68.9933941 75.1742902,70.2105871 75.1121952,71.7020891 C74.8278217,78.5421941 72.7490104,78.8810955 72.1967489,79.024821 C71.5746991,79.186722 71.2727412,78.7826687 71.2474635,78.7256259 C70.8570339,77.8506897 71.0828841,76.796516 71.2032277,76.1106041 C71.3175266,75.4579672 73.3435845,68.2725294 72.5473388,65.3924263 C72.2549974,64.334338 71.7480708,63.304771 70.7636165,62.8076037 C69.670908,62.2559102 68.7675071,62.0243835 68.0025837,62.1021183 C65.7597425,62.3283322 63.819134,63.4160605 62.2354348,65.3359428 C62.0582165,65.5506922 61.8760526,65.7601288 61.6908664,65.9701247 C61.3378037,65.3434926 60.9155023,64.9581739 60.2871331,64.6533863 C59.8285637,64.4310871 59.2958099,64.4749877 58.8630677,64.7705478 C58.0753394,65.3090991 58.0931986,66.3655097 58.1780985,67.2790337 C58.5185224,70.9292148 58.3962556,74.8562214 57.6871078,78.4580279 C57.5340682,79.2370539 57.3392655,80.004895 57.1048978,80.7584753 C56.807336,81.7147814 56.0289495,84.3946754 56.0289495,84.3946754 C55.9286632,84.8907242 56.0948911,85.3973986 56.435315,85.7153285" id="Fill-6" fill="#BE1936"></path>
            <g id="Group-10" transform="translate(108.000000, 57.000000)">
                <mask id="mask-4" fill="white">
                    <use xlink:href="#path-3"></use>
                </mask>
                <g id="Clip-9"></g>
                <path d="M26.5270892,7.08391646 C26.5002978,8.00457468 25.8100101,8.90100506 25.2479381,9.37887848 C24.6784849,9.8626 23.9605856,10.2772582 23.1131036,10.611157 C22.5029165,10.852043 21.7975928,10.9422709 21.1157799,11.0294354 C21.1157799,11.0294354 20.7598374,11.0492076 20.7685856,11.0294354 C20.9492906,10.6236886 21.1622547,10.163081 21.3514345,9.80495443 C22.0537511,8.47632152 22.8916647,7.1624481 24.2596647,6.54951139 C24.6719237,6.36515696 25.1380388,6.25181519 25.6071612,6.22201772 C26.007118,6.19806835 26.5459525,6.43951139 26.5270892,7.08391646 M15.635305,5.39325823 C15.5347007,5.10308101 15.2244129,4.25789114 15.1115065,3.89753671 C14.8088734,2.93037215 14.4655065,1.83371392 13.4974633,1.06176456 C13.1242978,0.764903797 12.6133482,0.357486076 12.0458086,0.664929114 C11.4014489,1.01442278 10.9962978,1.76743544 10.9809885,2.55581519 C10.9093626,6.15796709 10.9572043,9.73672658 9.87762158,13.1949038 C9.43638417,14.6084734 8.55855683,16.8892329 7.06480144,17.1568532 C5.9589741,17.3529038 4.96933381,16.8249038 4.74625468,15.6499924 C4.41901727,13.9231316 4.62268633,12.2441696 5.0220964,10.288119 C5.23670072,9.23713165 6.46008201,4.98472658 6.68124748,3.89503038 C6.85839856,3.02338481 6.99044173,2.09381519 6.50546331,1.15811899 C6.27226906,0.70781519 5.81271511,0.358878481 5.27661439,0.22381519 C4.81624029,0.107967089 4.37582302,0.177587342 4.06881583,0.412903797 C2.99442734,1.23776456 2.39790935,2.44052405 1.95639856,3.50877722 C0.724269065,6.48741013 0.157823022,9.57548608 0.273189928,12.6869544 C0.312283453,13.7524228 0.418355396,14.4845494 0.711693525,15.6499924 C1.01624029,16.8574861 1.7614777,18.0491063 2.53733381,18.8837139 C3.35911799,19.7676127 4.51360719,20.489157 5.67083022,20.6364734 C7.8297223,20.9110557 10.0238806,19.4008532 11.3344705,17.5478405 C12.2106576,16.3097139 12.7801108,14.8407266 13.305823,13.390119 C13.7563554,12.1461443 14.2782403,9.22376456 14.3113194,9.16138481 C14.7725137,10.6941443 16.1016935,12.0016127 16.1016935,12.0016127 C16.1016935,12.0016127 15.7733626,13.8718911 16.337895,16.7371823 C16.699305,18.5698658 17.7868158,19.8467013 19.2420245,20.7233595 C22.7907871,22.8604228 26.5615353,21.4000684 28.1963554,20.5055873 C29.8989741,19.5740684 31.3353194,18.1432329 32.6669597,16.6792582 C33.8854201,15.3397646 33.5767727,15.6789544 34.6678374,14.2082962 C35.6503698,12.8846759 36.6189597,11.0973848 36.994859,10.3337899 C37.3330317,9.64594177 38.1947295,7.55454937 37.6159813,6.48991646 C37.5298662,6.33118228 37.4254345,6.1769038 37.2622259,6.1562962 C36.2572763,6.02847342 36.0002978,7.17191646 35.790341,7.53310633 C34.9160676,9.03634684 32.423377,14.2957392 28.1895209,16.7778405 C27.2425281,17.3331316 25.4458662,18.2986253 23.8646288,18.4718405 C22.8350748,18.5874101 21.479377,18.0825241 20.9255065,17.1317899 C19.9940964,15.5341443 20.1258662,13.6867013 20.1258662,13.6867013 C20.1258662,13.6867013 22.0767151,13.5469038 22.207118,13.5196127 C23.109823,13.331638 24.013895,13.1297392 24.8827007,12.795562 C25.7515065,12.4613848 26.9997655,11.7426253 27.6895065,11.0622962 C28.283564,10.4763722 28.7513194,9.86733418 29.1233914,9.09649873 C29.2937079,8.74338481 29.6039957,7.80796709 29.6633194,6.8970557 C29.7278374,5.90371392 29.7251036,3.87219494 28.169564,2.21996709 C27.1624273,1.15087848 25.5117511,1.20016962 24.183118,1.40262532 C22.9805137,1.58586582 21.8344993,2.08323291 20.8306432,2.84766329 C19.7674633,3.65720759 18.8819813,4.72935949 18.1378374,5.89647342 C17.7715065,6.47097975 17.2706719,7.61303038 16.9571036,8.27080253 C16.9571036,8.27080253 15.9551612,6.3161443 15.635305,5.39325823" id="Fill-8" fill="#BE1936" mask="url(#mask-4)"></path>
            </g>
            <path d="M38.7950798,32.7394973 L31,39.4837026 L32.2040116,42 L39.7944148,37.5736486 L41.8844677,38.9472448 C41.8844677,38.9472448 46.0442663,35.2807796 45.9996435,35.044428 C45.9550208,34.8080764 43.8369117,32.001437 43.6736514,32.0000011 C43.5101238,31.9988524 41.7850686,32.8816529 41.7850686,32.8816529 L38.7950798,32.7394973 Z" id="Fill-11" fill="#FEFEFE"></path>
            <path d="M76.8547787,3.0030837 C76.4367106,2.03120195 74.0998031,-0.20896809 70.0029548,1.82922818 C66.9315515,3.35513336 64.7795693,5.71675518 64.602041,8.39912741 L64.5149206,8.39350959 C63.4870101,8.51041362 62.657723,9.16957041 62.0919886,9.90630654 L62.0900709,9.90416642 C60.5399861,9.00825891 58.6049829,10.139312 57.6461111,11.7288858 L57.6439194,11.7288858 C55.1141416,10.9402517 53.4369379,12.5827934 52.6616215,14.6961614 C52.4660117,15.2290511 52.2528682,15.7084379 52,16.1431497 C52.3717683,16.2078883 52.7490159,16.2862702 53.1322906,16.3614419 C54.3969055,16.6086257 55.9932901,16.050857 56.479849,14.8531927 L56.479849,14.8515876 C58.1008903,15.4604516 60.0926039,14.9238166 60.6690229,13.4225228 C62.2155461,14.2191823 64.1302761,14.5958433 66.4101992,13.1972752 L66.4184181,13.1900523 C68.7961462,15.8874054 71.6176949,14.7713331 73.0633996,17 C72.5987578,16.1741814 71.9078222,15.2723886 70.8684051,14.2737553 C67.9632976,11.4795619 69.3764006,9.45393879 71.2327764,9.80090565 C71.9105618,9.92744022 72.5930045,10.7957937 72.5930045,10.7957937 C74.9367612,9.26587579 76.6975237,6.30528803 76.9651859,4.31390687 C77.0339507,3.79706802 77.0027189,3.34630536 76.8547787,3.0030837" id="Fill-13" fill="#FFD970"></path>
            <path d="M84.1919991,23.7979377 C84.0934712,23.9030602 83.9860107,23.9721738 83.8747608,23.992211 C83.3271727,24.0950103 81.3490346,23.1538448 79.5135455,22.7266759 C79.0393121,22.6154552 78.6121771,22.5190446 78.223479,22.4351208 C78.2337648,22.3299984 78.2405319,22.2225528 78.2445921,22.1171399 C78.3615264,19.5172465 77.5887316,17.4333825 77,16 C79.9975235,16.4297824 84.1015916,18.2578098 84.6026225,19.0020884 C85.3505146,20.1151668 84.9453049,23.0098096 84.1919991,23.7979377" id="Fill-15" fill="#FEFEFE"></path>
            <path d="M62.0413351,20.0047023 C62.1188773,19.65977 62.3176318,19.3796572 62.696665,19.17028 C63.6464874,18.6437502 66.3515079,17.5876041 68.9887839,17.129495 C71.6243803,16.6695853 73.101602,17.5081231 73.5959687,18.4901898 L73.5959687,18.4922475 C73.7020645,18.7417511 73.7882847,18.9827664 73.8563091,19.2196662 C73.8560292,19.2214668 73.8579887,19.2232673 73.8579887,19.2253251 C74.717112,22.8330955 71.5664336,22.6995982 67.4256219,23.3714574 C66.5942123,23.5080413 65.7244515,23.6749772 64.8373347,23.911877 C64.3110552,24.0536053 63.8830333,24.0173373 63.5322736,23.853488 C62.8987787,23.5563987 62.526184,22.8354105 62.2921576,21.9819539 C62.0760471,21.1871435 61.9226422,20.5219721 62.0413351,20.0047023" id="Fill-17" fill="#FEFEFE"></path>
            <path d="M108.896428,47.0656647 C109.225331,47.816804 108.733084,48.4813797 107.953184,49.1227243 C107.428545,49.5524999 106.174394,50.1711665 104.553133,50.6147701 C103.338018,50.9474728 102.751917,51.3078316 101.789016,52.2171637 C100.804798,53.1497269 99.6353644,53.363785 98.6356424,52.2246309 C97.6348129,51.0860298 97.4033625,50.8039378 95.9177606,49.8752464 C92.6110091,47.8093369 86.740307,47.8234415 84,43.5049438 C85.8723678,41.7543136 87.1600186,39.8833794 87.755256,38 C87.7978916,38.034017 87.8427421,38.0683105 87.8875925,38.10454 C89.7427953,39.5589735 93.3895243,42.776759 96.2101191,45.0904671 C99.0304371,47.4066643 99.674124,47.4774638 101.087467,47.4050049 C102.643943,47.3267382 103.823898,47.4813357 104.96177,47.5761961 C106.097705,47.6724392 106.505789,47.1433783 107.235854,46.7185809 C107.864037,46.3560096 108.578322,46.3372034 108.896428,47.0656647" id="Fill-19" fill="#FCE0C5"></path>
            <path d="M97.9340969,14.07256 C98.422005,13.8969436 98.9099131,13.9066106 99.2499458,14.1190151 C100.350289,14.8067116 100.147128,17.3708717 99.2410894,18.9584007 C98.3353194,20.54405 96.9097046,20.0607022 95.6724899,19.912207 C94.6040839,19.7849254 92.7608756,20.9734239 90.1519897,22.2510733 C87.5471294,23.5268429 85.4258832,24.2105115 84,23.9422535 C84.7468912,23.2134724 85.1486505,20.5367997 84.4071268,19.5075375 C85.9094973,18.784664 88.0975692,18.101801 94.086386,16.9562667 C94.0251963,14.8569261 95.3176965,14.285233 96.2792887,13.5618225 C98.1173979,12.181596 98.4292511,13.7369018 97.9340969,14.07256" id="Fill-21" fill="#FCE0C5"></path>
            <path d="M79.9968216,10.9818393 C80.0905613,12.5433361 78.087537,13.0905659 77.0672491,13.4144424 C76.0475176,13.7363423 76.1290182,14.9234187 76.7404121,16.3132356 C76.7993818,16.4493372 76.8636366,16.5919332 76.9284477,16.7427179 C77.5337221,18.1362056 78.3275884,20.162763 78.2074236,22.6908067 C78.2032512,22.7933064 78.1962973,22.8977827 78.1857272,23 C76.1957764,22.5922601 75.1827207,22.4767715 74.0144521,22.3443407 C73.9298917,21.3605695 73.9404618,20.3335959 73.6305925,19.1691089 C73.6305925,19.1671323 73.6286453,19.1648734 73.6289235,19.1628968 C73.5613308,18.9031179 73.475936,18.6382564 73.3705136,18.3646415 L73.3705136,18.3623826 C73.2392225,17.9825972 73.0892947,17.663521 72.916836,17.3907532 C72.445078,16.5187998 71.7435606,15.5669362 70.6882246,14.5128552 C67.7386247,11.5638004 69.1733697,9.42542504 71.0578982,9.79165676 C71.7463422,9.92521698 72.4392367,10.8417846 72.4392367,10.8417846 C74.8188885,9.2269201 76.6066175,6.1022322 76.8783791,4 L76.8803262,4.00028237 C76.8344299,5.19187671 77.4747523,5.92321068 78.0452568,5.92631673 C79.8644179,5.93196409 80.2580131,7.02416478 79.6980787,8.22338307 C79.4855651,8.67827844 79.9142084,9.62223576 79.9968216,10.9818393" id="Fill-23" fill="#FCE0C5"></path>
            <path d="M63,52.0141107 L63,52.016066 C62.6019347,52.5875465 62.2823303,53.2827641 61.7638304,53.5947601 C60.9460271,54.0841217 50.2616372,57.9624246 48.8186163,58.4238546 C47.3753211,58.8852847 46.8584672,59.8883085 45.4434289,61.4077876 C44.0281162,62.9253115 42.9834349,63.1222293 42.7233619,64.1936856 C42.3752263,65.6352355 41.7195571,66.3474913 40.7316639,65.8335499 C39.4159361,65.1503429 40.1229066,63.030055 40.9204089,61.4946549 C41.3711471,60.6248648 41.8246288,60.0193077 42.3187126,57.6049001 C42.8108759,55.1882579 43.5691478,55.6569502 45.7276436,55.3195365 C48.1072564,54.9469289 48.1330442,53.9399947 50.3252837,52.412974 C54.2247322,49.8203628 56.295714,49.5681404 59.0105685,50.4809451 C60.3227299,50.9222644 61.5874307,51.4993313 63,52.0141107" id="Fill-25" fill="#FCE0C5"></path>
            <path d="M50.1208295,32.4962992 C50.078216,32.5990345 50.0320285,32.6974327 49.9814421,32.7939334 C49.5904978,33.350981 48.5097647,32.6489113 48.1188204,32.2176399 C47.1568553,31.1482711 46.8511378,30.0225199 47.0647551,29.0062807 C47.161529,28.5430231 47.3671734,28.1022643 47.6673923,27.7010816 C48.3676281,26.7631815 50.6288922,26.3468189 51.6738849,25.784892 C52.5206561,25.3305797 54.1157752,23.7041633 56.5296231,22.2116552 C59.1155744,20.6126168 60.6983218,20.0306308 61.5357456,20 C61.4191771,20.5453916 61.5698364,21.246106 61.782079,22.0837105 C62.0119169,22.9833898 62.3778431,23.7429262 63,24.0560114 C61.0733205,25.8933198 56.1298811,27.4132059 54.938353,27.7992087 C53.909306,28.1309977 52.7975063,28.6110616 52.7634156,29.3689716 C52.7342734,30.0244174 52.6792883,31.2507353 52.2682743,31.9902127 C51.9350643,32.589276 50.7685545,32.7711636 50.1208295,32.4962992" id="Fill-27" fill="#FCE0C5"></path>
            <g id="Group-31" transform="translate(30.000000, 0.000000)">
                <mask id="mask-6" fill="white">
                    <use xlink:href="#path-5"></use>
                </mask>
                <g id="Clip-30"></g>
                <path d="M69.2441344,18.5089298 C68.5889606,19.6586433 67.6445784,19.5137953 66.5513429,19.3458596 C66.3731575,19.3186491 66.1968911,19.2917135 66.0236402,19.2708246 C65.0844664,19.1578596 63.7883737,19.8285029 62.0051498,20.7569591 C61.4464703,21.0477544 60.8129529,21.3775789 60.1446208,21.7057544 C57.8005243,22.8560175 56.043617,23.4293626 54.8009799,23.4497018 C55.3015436,22.3621053 55.4747946,20.5854503 55.053729,19.4896082 C56.5441807,18.8346316 58.8271459,18.1725088 64.4334046,17.0978304 C64.6411961,17.0579766 64.789227,16.873 64.782922,16.6613626 C64.7354973,15.0334035 65.5587135,14.4570351 66.4299027,13.8468596 C66.5738216,13.7459883 66.7152734,13.6464912 66.8509683,13.5445205 C67.5335552,13.0308187 67.9313197,13.0005848 68.0220571,13.1025556 C68.0845591,13.1726433 68.0727714,13.3092456 68.0459066,13.3540468 C66.7059529,13.8927602 65.6160069,15.464924 66.3265552,17.7272456 C66.3983776,17.9545497 66.6404355,18.0804327 66.8665938,18.0092456 C67.0933004,17.9375088 67.2194008,17.6950877 67.1481266,17.4677836 C66.591366,15.6966257 67.4222579,14.4949649 68.4283197,14.1283099 C68.809088,13.990883 69.1720378,13.9941813 69.3987444,14.135731 C70.2197676,14.6499825 70.1386247,16.9386901 69.2441344,18.5089298 M53.7609259,23.5016491 C53.750783,23.5104444 53.7422849,23.5203392 53.7335127,23.5302339 C53.6852656,23.5744854 53.6573042,23.582731 53.6551112,23.5830058 C53.447868,23.614614 52.6161537,23.3416842 51.9467251,23.1234503 C51.165451,22.868386 50.2794587,22.5795146 49.4036093,22.3887661 C49.0658795,22.3148304 48.7525475,22.2480409 48.4586788,22.1870234 C48.5433853,20.1564035 48.0474819,18.4424152 47.4660494,16.9961345 C50.4302309,17.5595848 53.7823081,19.0734795 54.1162,19.5377076 C54.7264162,20.3859064 54.406505,22.8378772 53.7609259,23.5016491 M44.2965436,21.5073099 C44.288868,21.3976433 44.2820147,21.287152 44.2751614,21.1761111 C44.226366,20.4056959 44.1762,19.6088947 43.936061,18.7109474 C43.936061,18.7103977 43.9357869,18.7095731 43.9357869,18.7090234 C43.9357869,18.7087485 43.9355127,18.7081988 43.9355127,18.707924 C43.9341421,18.7029766 43.9330456,18.6980292 43.9316749,18.6930819 C43.9316749,18.692807 43.9314008,18.6925322 43.9314008,18.6922573 C43.9311266,18.6914327 43.9311266,18.6903333 43.9308525,18.6892339 C43.8604008,18.4231754 43.7737753,18.1595906 43.6676865,17.8850117 C43.6668641,17.882538 43.66659,17.8800643 43.6657676,17.8778655 C43.5284278,17.484 43.3699799,17.1484035 43.1830224,16.8540351 C42.6536749,15.8920468 41.9129722,14.9470994 40.9186981,13.9658713 C39.3926093,12.4591228 39.1941382,11.2624094 39.517339,10.6453626 C39.7547367,10.1921287 40.2832618,9.98406433 40.9000571,10.1017018 C41.2739722,10.1734386 41.7737135,10.6684503 42.0004201,10.9628187 C42.1385822,11.1433977 42.3924278,11.1854503 42.5813042,11.0590175 C44.5150263,9.76280702 46.0142502,7.5741462 46.7256208,5.67490643 C46.780173,5.7518655 46.8377405,5.82580117 46.9010649,5.89231579 C47.1793081,6.18366082 47.5189568,6.345 47.8657328,6.34692398 C48.5310494,6.34829825 49.0003622,6.51595906 49.1892386,6.81609942 C49.3592,7.0862807 49.3295938,7.4949883 49.1067251,7.96663743 C48.9282656,8.3440117 49.0192772,8.79202339 49.1448293,9.41264327 C49.22981,9.83261988 49.3263042,10.3089415 49.3605707,10.8627719 C49.4225243,11.8846784 48.137671,12.3697953 46.928478,12.7444211 L46.7749645,12.7919708 C46.3443042,12.9263743 46.0260378,13.1984795 45.8547058,13.5783275 C45.5756402,14.1970234 45.6877598,15.0795789 46.1866788,16.1993333 L46.2669992,16.3799123 C46.3009915,16.4563216 46.3360803,16.5349298 46.3719915,16.6182105 C47.0178448,18.0864795 47.6617792,19.8708304 47.6022927,22.0146901 C46.1214355,21.7274678 45.2214625,21.6125789 44.2965436,21.5073099 M42.919034,21.1115205 C42.3066247,22.005345 40.7251614,22.2480409 38.7226324,22.5556023 C38.2154896,22.633386 37.6905282,22.714193 37.1414432,22.8112164 C36.1452502,22.9898713 35.3258718,23.1767719 34.5615938,23.3994035 C34.1789066,23.5120936 33.8639297,23.5013743 33.6004896,23.3666959 C33.1736672,23.148462 32.8397753,22.569345 32.6078602,21.6466608 C32.423644,20.9064795 32.2660185,20.2028538 32.3663506,19.7262573 C32.4219992,19.4555263 32.5585166,19.2678012 32.8087985,19.1166316 C33.6355784,18.6163977 36.2505166,17.4790526 38.8284471,16.9906374 C39.4022039,16.8812456 39.9115398,16.8446901 40.3602927,16.8647544 C41.7408178,16.9257719 42.5437483,17.5219298 42.858451,18.1793801 C42.8587251,18.1793801 42.8587251,18.179655 42.8587251,18.179655 C42.9560417,18.4292222 43.0341691,18.6675205 43.0974934,18.907193 C43.3126865,19.9002398 43.2542965,20.6214561 42.919034,21.1115205 M25.4445359,27.0670526 L25.2326324,27.1363158 C24.1095166,27.5046199 22.8145205,28.062848 22.7679181,29.119386 C22.7399568,29.751 22.6881459,30.9270994 22.3262927,31.5886725 C22.1736015,31.8681988 21.5998448,32.0391579 21.115729,31.9998538 C21.1935822,31.7046608 21.2399104,31.3894035 21.2549876,31.0419883 C21.2654046,30.8036901 21.0817367,30.6022222 20.8440649,30.5917778 C20.6063931,30.5810585 20.405729,30.7657602 20.3950378,31.0037836 C20.3788641,31.3707135 20.3229413,31.689269 20.2209645,31.9866608 C20.2031459,32.0430058 20.1831344,32.0974269 20.1644934,32.1458012 C20.1318718,32.2257836 20.0956865,32.3019181 20.0573081,32.3783275 C20.0501807,32.383 20.0389413,32.3862982 20.0150919,32.3879474 C19.7357521,32.4063626 19.161173,32.0457544 18.8889606,31.7403918 C18.0679375,30.8130351 17.7389799,29.8164152 17.9371768,28.8574503 C18.0202386,28.4528655 18.1970533,28.0647719 18.4632347,27.7030643 C18.8398911,27.1901871 19.9035205,26.8136374 20.8421459,26.4813392 C21.3989066,26.284269 21.9246903,26.098193 22.3172463,25.8835322 C22.702949,25.6729942 23.1963853,25.2651111 23.8219529,24.7486608 C24.7008178,24.0227719 25.7946015,23.1190526 27.1817058,22.2469415 C29.4622039,20.8127544 30.7626826,20.3070234 31.4767946,20.142386 C31.4885822,20.6588363 31.6171498,21.2321813 31.7731305,21.8566491 C31.9929838,22.732883 32.3060417,23.3655965 32.7210764,23.7762281 C30.7747444,25.3277778 26.8088873,26.6220643 25.4445359,27.0670526 M18.9854548,33.6640936 C18.7444934,33.8795789 18.3889452,34.2025322 17.9922772,34.5628655 C17.7340456,34.0367953 17.3516324,33.3260234 16.8680649,32.6375146 C16.2827946,31.8047076 15.7065707,31.1752924 15.2989375,30.7712573 C15.8968178,30.3716199 16.4642695,29.9876491 16.7965166,29.7575965 C16.8263969,29.7367076 16.8702579,29.7042749 16.9253583,29.6638713 C16.9549645,29.6421579 16.9919722,29.6152222 17.0276093,29.589386 C17.0788718,30.5238889 17.4952772,31.4663626 18.2455745,32.3145614 C18.4593969,32.5545088 18.9676363,32.9744854 19.5043853,33.1591871 C19.3582734,33.3177778 19.1885861,33.4832398 18.9854548,33.6640936 M15.3852888,35.1777135 C15.2194394,35.3228363 14.9927328,35.3538947 14.8011151,35.2772105 C14.7202463,35.2447778 14.6456826,35.1931053 14.5842772,35.1227427 C14.0955012,34.560117 13.9460996,34.298731 13.7399529,33.9370234 C13.700478,33.8680351 13.6582618,33.7940994 13.6102888,33.7119181 C13.4515668,33.4409123 13.5414819,33.0923977 13.8120494,32.9329825 C13.9164934,32.8711404 14.0327251,32.8477778 14.1448448,32.8571228 C14.4080108,33.1506667 14.7087328,33.5159474 15.0132927,33.949117 C15.2216324,34.2456842 15.4080417,34.5504971 15.5703274,34.8374444 C15.5503158,34.9647018 15.4897328,35.0861871 15.3852888,35.1777135 M40.0521691,14.9108187 C38.8602463,14.5634035 37.6277521,14.2038947 36.4887367,12.8766257 C36.351671,12.7188596 36.2173467,12.5476257 36.0896015,12.3667719 C35.1284973,11.0136667 34.6863236,9.63390058 34.7762386,8.26540351 C34.9349606,5.79749123 36.8190649,3.4672807 39.945532,1.87230409 C41.0680996,1.29895906 42.1448873,1.03070175 43.1213429,1.0738538 C43.5552927,1.09309357 43.9700533,1.17417544 44.359868,1.31709942 C45.4026633,1.70024561 46.0372772,2.45004678 46.2097058,2.86122807 C46.3226479,3.13030994 46.3503351,3.51895322 46.2903004,3.9842807 C46.0561923,5.77000585 44.524895,8.54850292 42.4121653,10.1223158 C42.1133622,9.80623392 41.60759,9.35849708 41.0615205,9.25405263 C40.0740996,9.06330409 39.1689181,9.45332164 38.7549799,10.244076 C38.1505205,11.398462 38.7333236,13.0198246 40.3145127,14.5809942 C40.5132579,14.7775146 40.7015861,14.9718363 40.878949,15.1650585 C40.6092039,15.0732573 40.3326054,14.9927251 40.0521691,14.9108187 M30.6124587,13.0176257 C30.3983622,12.9038363 30.1768641,12.7735556 29.9545436,12.6309064 C29.7541537,12.5025497 29.4879722,12.5610936 29.3599529,12.7617368 C29.2316595,12.962655 29.2903236,13.229538 29.4904394,13.3581696 C29.6088641,13.4340292 29.7270147,13.5065906 29.844617,13.5758538 C29.5737753,14.0224912 29.1724471,14.2836023 28.8530842,14.4276257 C28.109366,14.7626725 27.1822541,14.7761404 26.3710996,14.4633567 C26.0341923,14.3355497 25.7255205,14.150848 25.4535822,13.9144737 C25.2743004,13.7586316 25.0018139,13.7775965 24.8461073,13.9579006 C24.6904008,14.1379298 24.70959,14.4105848 24.8894201,14.5667018 C25.1150301,14.7629474 25.3622965,14.9281345 25.6238178,15.0666608 C25.0687019,15.8455965 23.8778757,16.1800936 22.9540533,15.995117 L22.6431884,15.9321754 C22.5549181,15.9140351 22.4680185,15.8983684 22.3802965,15.8805029 C22.5277792,15.5693684 22.6684085,15.231848 22.8035552,14.8533743 C23.1843236,13.7877661 24.3052463,11.4828421 26.7546093,11.9432222 C26.6441344,12.188117 26.5525745,12.4365848 26.4862347,12.6872515 C26.4259259,12.9175789 26.5629915,13.1539532 26.7927135,13.2146959 C26.8231421,13.2229415 26.8535707,13.2273392 26.8839992,13.2287135 C27.081922,13.2375088 27.2661382,13.1077778 27.3190456,12.9076842 C27.4100571,12.5624678 27.5553467,12.2189006 27.7502541,11.8860526 C27.752173,11.8830292 27.7546402,11.8811053 27.7565591,11.8780819 C28.3168834,10.9240643 29.2100031,10.1907544 30.0866749,9.96454971 C30.4784085,9.86367836 30.8479375,9.86752632 31.1911498,9.97142105 C30.9896633,10.2987719 30.8210726,10.6404152 30.7073081,10.9685906 C30.6294548,11.1936959 30.7478795,11.4396901 30.9729413,11.5180234 C31.0132386,11.5323158 31.0540842,11.5400117 31.0952039,11.5416608 C31.2802425,11.5499064 31.4565089,11.4366667 31.5206556,11.2519649 C31.6588178,10.8539766 31.8918293,10.4260292 32.1791189,10.0453567 C32.4801151,9.64297076 33.0747058,8.99156725 33.9058718,8.74474854 C33.9346556,10.1363333 34.4316556,11.5207719 35.3878255,12.8670058 C35.4297676,12.9260994 35.4739027,12.9827193 35.5169413,13.0404386 C33.8836672,13.9265673 32.3137174,13.9177719 30.6124587,13.0176257 M12.3824548,37.7715088 C12.2166054,37.9119591 11.9937367,37.940269 11.8059568,37.8641345 C11.7220726,37.8308772 11.6453158,37.7770058 11.5825398,37.7027953 C10.9662927,36.9681111 10.3930842,36.1608655 9.95968263,35.481152 C8.03966718,36.8559708 3.35969807,40.3534854 3.30624247,40.3933392 C3.05979846,40.5774912 2.74701467,40.608 2.48055907,40.500807 C2.3396556,40.4447368 2.21218456,40.3501871 2.11459382,40.218807 C1.83443166,39.840883 1.91173668,39.3057427 2.28839305,39.0245673 C2.51318069,38.8569064 7.35899923,35.234883 9.16470193,33.9529649 C9.13975598,33.6926784 9.29628494,33.4422865 9.5545166,33.3579064 C9.8524973,33.2614327 10.1726826,33.4257953 10.269451,33.723462 C10.3549799,33.9862222 11.2645475,35.5559123 12.4512618,36.9700351 C12.6530224,37.2105322 12.6223197,37.5694912 12.3824548,37.7715088 M69.8548988,13.4035205 C69.5917328,13.238883 69.2707251,13.1613743 68.9242232,13.1674211 C68.9236749,13.16 68.9244973,13.1525789 68.9236749,13.1451579 C68.8894085,12.7570643 68.6687328,12.4360351 68.3337444,12.2859649 C67.815088,12.054538 67.142644,12.2452865 66.3339568,12.8543626 C66.2059375,12.9505614 66.0724355,13.0442865 65.9370147,13.1391111 C65.0688409,13.7470877 64.0010996,14.4949649 63.924617,16.3166959 C58.3065707,17.4034678 56.0647251,18.0804327 54.5490533,18.7700409 C53.4311459,17.8781404 49.8049375,16.4703392 47.0633506,16.0511871 C47.0597869,16.0432164 47.0562232,16.0346959 47.0526595,16.0267251 L46.9739838,15.8497193 C46.5896517,14.9875029 46.4709529,14.3072398 46.6392695,13.9339883 C46.6831305,13.8364152 46.7714008,13.6973392 47.0315514,13.6162573 L47.1825977,13.5692573 C48.2818641,13.2287135 50.3282541,12.5949006 50.2199722,10.8097251 C50.1821421,10.1957018 50.0746826,9.66605848 49.9886054,9.24085965 C49.9176054,8.8901462 49.8293351,8.45395322 49.8847097,8.33631579 C50.2386131,7.58816374 50.2501266,6.88481287 49.9176054,6.35599415 C49.6689683,5.96020468 49.1135784,5.48745614 47.8690224,5.48388304 C47.7612888,5.4847076 47.6371073,5.41461988 47.5233429,5.29560819 C47.4010803,5.16780117 47.1200958,4.79070175 47.1486054,4.05739181 C47.1488795,4.05574269 47.1483313,4.05381871 47.1483313,4.05189474 C47.2217985,3.44556725 47.1732772,2.9318655 47.0033158,2.52645614 C46.7179452,1.84536842 45.8812965,0.956491228 44.6559297,0.506555556 C43.6114896,0.122859649 41.8792541,-0.0841052632 39.5551691,1.1029883 C36.3001344,2.76338012 34.2836247,5.20435673 33.9554896,7.84460234 C33.1366595,8.0084152 32.3578525,8.49655556 31.7166595,9.24635673 C31.1478371,9.00503509 30.5176093,8.96188304 29.8720301,9.1287193 C28.8571961,9.39038012 27.8758062,10.1396316 27.1934934,11.1576901 C24.9250571,10.597538 22.9529568,11.8756082 21.992949,14.5620292 C21.8364201,15.0004211 21.6744085,15.380269 21.5017058,15.7183392 C20.7664857,15.6075731 19.9449143,15.5616725 19.1680263,15.8307544 C17.4623815,16.4230643 16.4519336,17.9825848 16.7107135,19.623462 C16.7433351,19.8296023 16.916312,19.9785731 17.1167019,19.9873684 C17.1449375,19.9884678 17.1742695,19.9870936 17.2033274,19.9824211 C17.4382579,19.9453158 17.5986247,19.7240585 17.5613429,19.4885088 C17.3689027,18.2684327 18.1455166,17.0994795 19.4492849,16.6465205 C19.9468332,16.474462 20.4827598,16.4692398 21.0145745,16.5261345 C20.6392888,17.0467076 20.1875205,17.4779532 19.6241807,17.8564269 C19.426532,17.9891813 19.3738988,18.2574386 19.5063042,18.4556082 C19.5858023,18.5740702 19.7132734,18.6405848 19.8454046,18.6463567 C19.933949,18.6502047 20.0244124,18.6268421 20.1036363,18.5735205 C20.8794278,18.0521228 21.4715514,17.4427719 21.9499104,16.6759298 C22.1228873,16.709462 22.2953158,16.7421696 22.471034,16.7779006 L22.7846402,16.8416667 C24.0535938,17.0959064 25.7109915,16.6036433 26.4357946,15.391538 C26.749949,15.4794912 27.0736981,15.5322632 27.3977212,15.5465556 C28.0268525,15.5745906 28.6548873,15.4635497 29.2061653,15.2150819 C29.8147367,14.9410526 30.2974819,14.5084327 30.6080726,13.9763158 C31.375366,14.3292281 32.1311459,14.5240994 32.8814432,14.5573567 C33.9549413,14.6049064 35.0161035,14.3204327 36.0811035,13.7113567 C37.3168873,15.0122398 38.6379259,15.3975848 39.811756,15.7397778 C40.1442772,15.8368012 40.4554162,15.9280526 40.7459954,16.0333216 C40.1453737,15.968731 39.4564819,15.9923684 38.6680803,16.1424386 C36.075895,16.6336023 33.373783,17.7665497 32.3647058,18.3772749 C32.0086093,18.5916608 31.7596981,18.8816316 31.6174239,19.2389415 C30.5285745,19.399731 28.8497946,20.1786667 26.7244548,21.5155556 C25.2902,22.4173509 24.124868,23.3798889 23.2745127,24.0824152 C22.6848564,24.5694561 22.2191073,24.9542515 21.905227,25.1254854 C21.5729799,25.3071637 21.0787212,25.4819708 20.5556788,25.6672222 C19.4484625,26.0591637 18.3034162,26.4645731 17.7702309,27.1910117 C17.4791035,27.5865263 17.2759722,28.0122749 17.1537097,28.4564386 C16.847505,28.6524094 16.5810494,28.846731 16.4168448,28.9673918 C16.3680494,29.0031228 16.3299452,29.0311579 16.3055475,29.0484737 C15.9637058,29.2851228 15.3641807,29.6905322 14.7410803,30.1066608 C14.7040726,30.1311228 14.6741923,30.1616316 14.6476015,30.1943392 C14.1648564,29.8672632 13.5085861,29.9530175 13.1343969,30.4139474 C12.915366,30.6844035 12.8435436,31.0263216 12.9046749,31.345152 C12.8775359,31.3561462 12.850671,31.369614 12.8249027,31.386655 C12.3114548,31.7258246 11.8939529,32.003152 11.6976749,32.1331579 L9.3678332,31.9828129 C9.26887181,31.9775906 9.15839691,32.0083743 9.07560927,32.0735146 L1.11648185,38.3039006 C0.0852,39.1795848 -0.645908108,40.512076 1.75191815,43.755076 C3.18480232,45.693345 4.52914208,46.7581287 5.74738147,46.9200175 C5.8230417,46.9301871 5.89870193,46.9367836 5.97326564,46.9400819 C6.56209961,46.966193 7.10899151,46.7817661 7.60187954,46.3903743 C8.54434286,45.6422222 15.5020687,40.1149123 15.5020687,40.1149123 C15.5856788,40.0486725 15.6418757,39.9535731 15.6594201,39.8483041 L16.0522502,37.5032515 C16.1863004,37.380117 16.4346633,37.152538 16.7441575,36.8699883 C16.7622502,36.8534971 16.7773274,36.8353567 16.7921305,36.8166667 C16.9363236,36.891152 17.095868,36.9354035 17.2606208,36.9428246 C17.4160533,36.9496959 17.5766942,36.9246842 17.7313042,36.8614678 C18.3138332,36.6272924 18.5964625,35.9659942 18.3629027,35.381655 C18.3618062,35.3789064 18.359339,35.3725848 18.3557753,35.3643392 C18.3982656,35.345924 18.4388371,35.3222865 18.4747483,35.2895789 C18.9081498,34.8957135 19.3001575,34.5397778 19.5581151,34.3089006 C20.1247444,33.8045439 20.4942734,33.3721988 20.7596324,32.8991754 C20.7730649,32.8749883 20.7856749,32.8499766 20.7982849,32.8246901 C20.9079375,32.8453041 21.0208795,32.8593216 21.1368371,32.8645439 C21.898922,32.8983509 22.7533892,32.6037076 23.0815243,32.0039766 C23.5393236,31.1659474 23.5968911,29.8592924 23.6281421,29.1575906 C23.6402039,28.8860351 23.974644,28.4572632 25.5010069,27.9567544 L25.7109915,27.8880409 C27.1671768,27.4128187 31.4954355,26.000345 33.4976903,24.2506257 C33.6531228,24.2992749 33.8148602,24.3297836 33.9842734,24.3374795 C34.2422309,24.3487485 34.5158139,24.3124678 34.8028293,24.2283626 C35.5290031,24.0164503 36.3127444,23.8377953 37.2645282,23.6665614 C37.6537946,25.639462 36.92159,28.8852105 36.2187174,29.9205848 C36.1282541,30.053614 36.1194819,30.2259474 36.1954162,30.3677719 C36.2718988,30.5098713 36.422671,30.5967251 36.5808448,30.595076 C37.4153004,30.5832573 39.3144819,30.7355263 40.5672618,31.0422632 C41.6256826,31.3017251 42.3373274,31.4479474 42.8598216,31.4710351 C43.5966865,31.5037427 43.9571691,31.2912807 44.3837174,30.8069883 C44.5279104,30.6426257 47.7922656,26.8889474 48.3742463,23.0511637 C48.6396054,23.1066842 48.9194934,23.1663275 49.2207637,23.2322924 C50.0543969,23.4136959 50.9181846,23.6956959 51.6805436,23.9441637 C52.6090263,24.2473275 53.1844278,24.4290058 53.5734201,24.4463216 C53.6570301,24.4498947 53.7321421,24.4460468 53.8004008,24.4339532 C53.9306131,24.4119649 54.0545205,24.3578187 54.1715745,24.2789357 C54.2858873,24.2940526 54.4026672,24.3058713 54.5246556,24.3113684 C55.9410919,24.3740351 57.8712502,23.7828246 60.5231961,22.481117 C61.2008486,22.148269 61.8390263,21.8162456 62.4018178,21.5229766 C63.9860224,20.6981404 65.2357869,20.0467368 65.9213892,20.1280936 C66.0853197,20.1476082 66.2522656,20.1734444 66.4208564,20.1992807 C67.5892039,20.3784854 69.042922,20.601117 69.9916903,18.9374269 C70.4815629,18.0771345 70.7916054,16.9466608 70.8212116,15.9134854 C70.8557521,14.7068772 70.5128139,13.8155263 69.8548988,13.4035205" id="Fill-29" fill="#BE1936" mask="url(#mask-6)"></path>
            </g>
            <path d="M107.247196,49.1673014 C106.787683,49.5418529 105.582252,50.1383406 104.022056,50.5630332 C102.780239,50.9014173 102.121979,51.2803528 101.086351,52.2535839 C100.754189,52.5664865 100.241198,52.9341881 99.6813471,52.9098026 C99.6805201,52.9098026 99.6796932,52.9095286 99.6788662,52.9095286 C99.2907467,52.8917189 98.9175125,52.6832085 98.5701897,52.2892033 L98.5007251,52.2102927 C97.5524786,51.1365053 97.2663507,50.8123689 95.7679008,49.880785 C94.5627457,49.131408 93.0706357,48.6606841 91.4911438,48.1628348 C88.761903,47.3024897 85.9436263,46.413923 84.234853,43.9961889 C85.8424616,42.4461977 86.9776008,40.8340097 87.6182185,39.1927781 C88.6034025,39.9807884 89.9772573,41.1463642 91.4225062,42.372493 C92.8200671,43.5586185 94.265316,44.7850212 95.554821,45.837711 C98.3739247,48.1409151 99.1234253,48.3088742 100.707879,48.2277716 C101.957966,48.1653007 102.94949,48.2559931 103.908487,48.3433976 C104.110265,48.3620293 104.309562,48.380113 104.506929,48.3965527 C105.538147,48.4828612 106.0776,48.1176255 106.599412,47.7636237 C106.735584,47.6715613 106.875892,47.5762109 107.023917,47.4907244 C107.310321,47.3266012 107.582666,47.2674183 107.771488,47.3293412 C107.896083,47.3698925 107.992011,47.4699008 108.064507,47.6345719 C108.202885,47.9485705 108.213636,48.3762771 107.247196,49.1673014 M61.0816511,53.0309085 C60.3459332,53.460807 49.792005,57.2202959 48.1639981,57.7282831 C46.9552595,58.1055746 46.3413802,58.8048105 45.4915418,59.7725617 C45.2299471,60.0706686 44.9330688,60.4085047 44.5885025,60.7696305 C44.0275485,61.3565283 43.5368861,61.7264219 43.1038352,62.0524763 C42.453294,62.5421058 41.9397524,62.9292611 41.7490004,63.6961738 C41.5604538,64.4587026 41.285352,64.956278 40.9744154,65.0976595 C40.9140474,65.1250591 40.7288085,65.2089016 40.3649465,65.0242288 C40.1438728,64.9121647 40.0057706,64.7491376 39.9305173,64.5115837 C39.7232262,63.8608449 40.018175,62.7095169 40.740386,61.3521444 C40.799927,61.2400803 40.8597437,61.1324002 40.9195604,61.0244461 C41.3247704,60.2931527 41.7434874,59.5371998 42.1870131,57.4227784 C42.5241368,55.8053844 42.8372787,55.774971 44.1546246,55.6481112 C44.4743821,55.6174237 44.8368659,55.5826263 45.2539289,55.5190594 C46.9458873,55.2604079 47.5898128,54.672962 48.4049189,53.9290649 C48.8308028,53.5405396 49.3134713,53.1002293 50.0511189,52.59827 C54.0161123,50.0260025 55.9735246,49.9596956 58.3989957,50.7559259 C59.1250658,50.9943017 59.8310133,51.2715849 60.5785843,51.5650339 C61.0006091,51.731075 61.4375192,51.8995821 61.8835258,52.0658972 C61.8807693,52.0702811 61.8774615,52.074665 61.8744293,52.0790489 C61.618072,52.479356 61.3757729,52.8577435 61.0816511,53.0309085 M108.857837,47.2896119 C108.641174,46.7961464 108.294678,46.5942119 108.041904,46.5117393 C107.612437,46.3717278 107.097517,46.4544743 106.589488,46.7462793 C106.413621,46.8482055 106.260083,46.9523237 106.111781,47.05288 C105.643171,47.3704405 105.306323,47.5989525 104.57915,47.5389476 C104.383988,47.5227818 104.186896,47.5046982 103.987599,47.4866145 C103.044314,47.40058 101.975883,47.3027637 100.663775,47.3685225 C99.4180984,47.4320894 98.9020759,47.458667 96.1044732,45.1724505 C94.8213082,44.1252407 93.3790915,42.9013039 91.9845627,41.7179184 C90.3565559,40.3364343 88.8186875,39.0316689 87.8153104,38.2491384 L87.7080814,38.1647479 C87.6995362,38.156528 87.690164,38.1488562 87.6807917,38.1414583 C86.9552729,37.5693562 86.5247029,37.178639 86.1784827,36.8646404 C85.7142829,36.4432357 85.3788132,36.138827 84.7103545,35.7527676 C83.3775721,34.9869509 79.4001743,34.0392013 75.6546007,33.594781 C74.3786027,33.4432616 72.991241,33.1388529 71.6493619,32.844856 C69.4590228,32.3645423 67.1939818,31.8675149 65.3584081,32.0321861 C62.6608674,32.2757678 61.0959851,35.3206771 60.5965018,37.0821926 C60.3040339,38.1157027 60.160143,39.3226518 60.0327913,40.3876714 C59.9363127,41.1912995 59.8456229,41.9505403 59.708899,42.4716793 C59.6840902,42.5664817 59.6601084,42.6755318 59.6336457,42.7958157 C59.4263546,43.7443873 59.1129371,45.1776564 56.9407911,45.5417961 C54.0825447,46.0207398 50.6785052,48.1932482 49.4419256,51.9721908 C48.7208173,52.4746981 48.2221609,52.9278863 47.8194318,53.2950399 C47.0305128,54.0148254 46.5541843,54.4493819 45.1224424,54.6683041 C44.7293612,54.7285831 44.3798331,54.7620105 44.0711017,54.791602 C42.541503,54.9387374 41.785938,55.1050526 41.3388287,57.2476955 C40.9225926,59.235257 40.5526662,59.9027095 40.1609633,60.6093432 C40.0986657,60.7216813 40.0369194,60.8334714 39.9748974,60.9501933 C39.3794869,62.069464 38.7449336,63.6411008 39.1049364,64.7710572 C39.2507569,65.2302732 39.5426735,65.5733153 39.9710383,65.7905935 C40.247794,65.9311531 40.4956061,65.9892401 40.7100641,65.9985559 C40.9680754,66.0100637 41.1783986,65.9511548 41.3344183,65.88019 C41.9069496,65.6198945 42.3295258,64.954086 42.5894666,63.9019442 C42.701933,63.451222 43.005427,63.2062703 43.6264733,62.7382864 C44.0633834,62.4094921 44.6069712,62.0001432 45.2167158,61.3620082 C45.5736865,60.9880047 45.8763535,60.6430447 46.143737,60.3383619 C46.9569134,59.412806 47.4475759,58.8541296 48.4233876,58.5494469 C49.8294938,58.1105065 60.6359202,54.2893687 61.5213177,53.7720656 C61.9948897,53.4936865 62.305275,53.0092628 62.6049099,52.5412789 C62.64295,52.482096 62.6796118,52.425105 62.7165493,52.3683879 C63.9859316,52.8070543 65.6751335,53.2928479 67.8312916,53.4651909 C67.9368667,53.4734108 68.0410636,53.4797127 68.1452604,53.4843706 C72.7897386,53.6884971 76.0452011,50.1523143 77.2459457,48.5954733 C78.0908223,47.5005882 79.2209998,46.9969849 80.4178853,46.4637902 C81.462886,45.9982722 82.5434459,45.5168626 83.56033,44.6192541 C83.5721831,44.6088423 83.5840362,44.5984305 83.5958893,44.5880187 C85.4821831,47.1712459 88.5267709,48.1313253 91.2295491,48.9831766 C92.7552887,49.4643122 94.1964028,49.9185964 95.3089385,50.6101604 C96.6993324,51.4748894 96.9201305,51.7250471 97.8496326,52.7780108 L97.9193728,52.8566475 C98.4279527,53.4331335 99.0062728,53.7402822 99.6388965,53.7693257 C99.6402748,53.7693257 99.641653,53.7693257 99.6430313,53.7695997 C100.326651,53.7994652 101.031771,53.4912205 101.681761,52.8782931 C102.616501,51.9995903 103.144928,51.6943596 104.250848,51.3932388 C105.737996,50.9882738 107.129492,50.3758944 107.796848,49.8322879 C108.484878,49.2689536 109.343262,48.3927168 108.857837,47.2896119" id="Fill-32" fill="#BE1936"></path>
        </g>
    </g>
</svg>